<svg width="170" height="52" viewBox="0 0 170 52" fill="none" xmlns="http://www.w3.org/2000/svg">
<path d="M48.1066 18.5371V50.7633H33.0748V33.184H18.043V18.5371H48.1066Z" fill="url(#paint0_linear)"/>
<path d="M0 18.5371H15.0318V36.1089H30.0637V50.7633H0V18.5371Z" fill="url(#paint1_linear)"/>
<path d="M71.6367 21.7485H77.849V32.3474H70.6696C66.3295 32.3474 66.1206 31.5106 66.1206 26.867V11.3155C66.1206 7.23732 66.2289 5.51859 70.6696 5.51859H77.849V11.5643H83.6359V0.875H68.7433C63.7069 0.875 60.1172 3.07618 60.1172 10.0717V27.7566C60.1172 34.3827 62.5309 37.2021 69.2771 37.2021H83.6359V16.3737H71.6367V21.7485Z" fill="url(#paint2_linear)"/>
<path d="M166.312 6.28789C166.336 6.28789 166.367 6.28789 166.397 6.28789H166.529C166.877 6.28789 167.132 6.23512 167.295 6.11451C167.457 5.9939 167.542 5.80544 167.542 5.54914C167.542 5.31545 167.465 5.14207 167.31 5.029C167.156 4.92346 166.908 4.86315 166.575 4.86315C166.529 4.86315 166.452 4.87069 166.328 4.87823H166.312V6.28789ZM165.902 4.59178H166.777C167.171 4.59178 167.473 4.66716 167.682 4.833C167.898 4.99884 168.007 5.22499 168.007 5.51899C168.007 5.7376 167.937 5.91852 167.805 6.07682C167.674 6.23512 167.481 6.35574 167.225 6.43866L168.308 7.96893H167.813L166.877 6.58942H166.312V7.96893H165.902V4.59178Z" fill="url(#paint3_linear)"/>
<path d="M167.105 3.57361C167.871 3.57361 168.56 3.88268 169.063 4.37267C169.566 4.86266 169.875 5.53357 169.875 6.27986C169.875 7.02615 169.566 7.7046 169.063 8.18705C168.56 8.67704 167.871 8.97857 167.105 8.97857C166.34 8.97857 165.643 8.67704 165.14 8.18705C164.638 7.7046 164.328 7.02615 164.328 6.27986C164.328 5.53357 164.638 4.86266 165.14 4.37267C165.643 3.88268 166.34 3.57361 167.105 3.57361ZM168.815 4.6139C168.374 4.18421 167.771 3.92037 167.105 3.92037C166.432 3.92037 165.829 4.18421 165.388 4.6139C164.955 5.03604 164.684 5.62403 164.684 6.27986C164.684 6.93569 164.955 7.52368 165.388 7.94582C165.829 8.37551 166.432 8.63935 167.105 8.63935C167.771 8.63935 168.374 8.37551 168.815 7.94582C169.256 7.52368 169.519 6.93569 169.519 6.27986C169.519 5.62403 169.248 5.03604 168.815 4.6139Z" fill="url(#paint4_linear)"/>
<path d="M100.767 21.3345H106.013V19.6534C106.013 14.2786 102.964 13.6982 99.5294 13.6982H87.4297V17.9724H90.3773V32.9284H87.4297V37.2026H98.8409V32.9284H95.8933V17.9724H100.767V21.3345Z" fill="url(#paint5_linear)"/>
<path d="M140.162 13.6982V32.9284H147.968V17.9724H145.021V13.6982H160.88C165.275 13.6982 166.822 15.3415 166.822 19.7213V32.9284H169.77V37.2026H161.144V17.9724H153.484V32.9284H156.61V37.2026H115.375C110.826 37.2026 107.824 36.4714 107.824 31.1493C107.824 27.0786 107.987 23.7392 114.091 23.7392H121.487V17.9724H113.503V21.3345H108.196V19.2011C108.196 17.0602 108.52 13.6982 114.307 13.6982H121.587C125.448 13.6982 127.003 15.7033 127.003 19.2991V32.9284H134.646V17.9724H131.645V13.6982H140.162ZM113.503 27.9606V32.9284H121.487V27.9606H113.503Z" fill="url(#paint6_linear)"/>
<path d="M64.0526 50.1598C64.393 50.1598 64.6947 50.092 64.95 49.9563C65.2053 49.8281 65.4219 49.6246 65.5921 49.3608C65.7624 49.0894 65.9016 48.7502 65.9867 48.3431C66.0795 47.936 66.126 47.4536 66.126 46.9033C66.126 45.5991 65.9558 44.6569 65.6154 44.0689C65.4452 43.7824 65.2363 43.5713 64.9732 43.4281C64.7179 43.2849 64.4085 43.2095 64.0526 43.2095C63.7045 43.2095 63.395 43.2849 63.1397 43.4206C62.8844 43.5638 62.6678 43.7673 62.4976 44.0463C62.3274 44.3327 62.1959 44.6945 62.103 45.1318C62.0179 45.569 61.9715 46.0816 61.9715 46.6771C61.9715 47.2726 62.0179 47.8003 62.103 48.2451C62.1959 48.6823 62.3274 49.0441 62.4976 49.3306C62.6678 49.602 62.8844 49.8131 63.1397 49.9487C63.395 50.0844 63.7045 50.1598 64.0526 50.1598ZM124.636 48.8858V50.2653L124.582 50.2955C124.35 50.4387 124.126 50.5669 123.917 50.6724C123.7 50.778 123.484 50.8684 123.275 50.9363C123.074 50.9966 122.857 51.0493 122.64 51.0795C122.432 51.1096 122.207 51.1323 121.983 51.1323C121.457 51.1323 120.985 51.0343 120.575 50.8307C120.157 50.6347 119.801 50.3332 119.515 49.9337H119.507C119.221 49.5341 119.004 49.0668 118.857 48.5089C118.71 47.9662 118.633 47.3405 118.633 46.6394C118.633 45.9534 118.71 45.3428 118.865 44.8076C119.012 44.2649 119.244 43.7975 119.554 43.413C119.863 43.0135 120.227 42.7195 120.66 42.5235C121.085 42.3275 121.573 42.222 122.114 42.222C122.308 42.222 122.501 42.2446 122.695 42.2748C122.896 42.3124 123.089 42.3577 123.29 42.418V42.4255C123.491 42.4858 123.7 42.5688 123.917 42.6743C124.126 42.7798 124.35 42.8929 124.575 43.0286L124.636 43.0663V44.4081H123.747L123.716 44.3402C123.615 44.1367 123.507 43.9633 123.391 43.8201C123.275 43.6769 123.151 43.5563 123.027 43.4733C122.896 43.3829 122.756 43.3226 122.602 43.2774C122.439 43.2321 122.261 43.2095 122.068 43.2095C121.728 43.2095 121.426 43.2849 121.17 43.4281C120.907 43.5789 120.691 43.7975 120.513 44.0915C120.327 44.393 120.196 44.7699 120.103 45.2147C120.01 45.667 119.964 46.1947 119.964 46.7977C119.964 47.3405 120.01 47.8229 120.103 48.2375C120.196 48.6522 120.343 48.9989 120.528 49.2854C120.706 49.5643 120.931 49.7754 121.186 49.9111C121.449 50.0543 121.751 50.1221 122.083 50.1221C122.486 50.1221 122.818 50.0317 123.081 49.8432C123.213 49.7452 123.329 49.6246 123.437 49.4814C123.538 49.3381 123.631 49.1648 123.708 48.9612L123.739 48.8858H124.636ZM168.494 42.4255H169.763V50.9438H168.494V42.4255ZM163.597 46.3681L163.326 46.3907V49.9864L163.643 50.0015C163.744 50.009 163.829 50.009 163.899 50.009C164.324 50.009 164.695 49.9714 165.013 49.896C165.322 49.8206 165.577 49.7151 165.779 49.5718C165.972 49.4286 166.119 49.2477 166.22 49.0366C166.32 48.818 166.367 48.5617 166.367 48.2602C166.367 47.9209 166.32 47.6345 166.22 47.3933C166.119 47.1596 165.972 46.9711 165.779 46.8204C165.585 46.6696 165.322 46.5565 164.997 46.4811C164.672 46.4057 164.285 46.3681 163.829 46.3681C163.767 46.3681 163.69 46.3681 163.597 46.3681ZM164.146 50.9513H162.057V42.418H163.326V45.4258L163.659 45.4107L163.798 45.4031H163.922C164.556 45.4031 165.106 45.4559 165.577 45.569C166.049 45.6745 166.444 45.8479 166.753 46.0665C167.071 46.2927 167.303 46.5791 167.457 46.9259C167.612 47.2726 167.697 47.6797 167.697 48.1396C167.697 48.6145 167.62 49.0291 167.473 49.3758C167.326 49.7377 167.102 50.0317 166.808 50.2653C166.514 50.4915 166.142 50.6649 165.693 50.7855C165.253 50.8986 164.734 50.9513 164.146 50.9513ZM154.522 42.418L154.545 42.5009L156.611 49.0743L158.63 42.5009L158.653 42.418H160.549V50.9513H159.319V50.8383L159.35 44.0086L157.114 50.8684L157.083 50.9513H156.077L156.054 50.8684L153.764 44.0236L153.818 50.8383V50.9513H152.588V42.418H154.522ZM146.546 50.9513V42.418H151.435V43.3603H147.815V45.9384H151.242V46.9259H147.815V49.9789H151.613V50.9513H146.546ZM142.028 50.9513V43.3904H139.622V42.418H145.656V43.3904H143.304V50.9513H142.028ZM139.281 48.8858V50.2653L139.227 50.2955C138.995 50.4387 138.779 50.5669 138.562 50.6724C138.345 50.778 138.129 50.8684 137.92 50.9363C137.719 50.9966 137.51 51.0493 137.293 51.0795C137.077 51.1096 136.852 51.1323 136.636 51.1323C136.102 51.1323 135.63 51.0343 135.22 50.8307C134.81 50.6347 134.454 50.3332 134.16 49.9337C133.866 49.5341 133.649 49.0668 133.502 48.5089C133.355 47.9662 133.286 47.3405 133.286 46.6394C133.286 45.9534 133.355 45.3428 133.51 44.8076C133.665 44.2649 133.889 43.7975 134.199 43.413C134.508 43.0135 134.879 42.7195 135.305 42.5235C135.73 42.3275 136.218 42.222 136.759 42.222C136.953 42.222 137.146 42.2446 137.347 42.2748C137.541 42.3124 137.742 42.3577 137.935 42.418V42.4255C138.136 42.4858 138.345 42.5688 138.562 42.6743C138.779 42.7798 138.995 42.8929 139.22 43.0286L139.281 43.0663V44.4081H138.392L138.361 44.3402C138.26 44.1367 138.152 43.9633 138.036 43.8201C137.92 43.6769 137.796 43.5563 137.672 43.4733C137.541 43.3829 137.401 43.3226 137.247 43.2774C137.084 43.2321 136.906 43.2095 136.721 43.2095C136.373 43.2095 136.071 43.2849 135.815 43.4281C135.56 43.5789 135.336 43.7975 135.158 44.0915C134.98 44.393 134.841 44.7699 134.748 45.2147C134.655 45.667 134.609 46.1947 134.609 46.7977C134.609 47.3405 134.655 47.8229 134.756 48.2375C134.848 48.6522 134.988 48.9989 135.173 49.2854C135.359 49.5643 135.576 49.7754 135.839 49.9111C136.094 50.0543 136.396 50.1221 136.736 50.1221C137.131 50.1221 137.463 50.0317 137.726 49.8432C137.858 49.7452 137.974 49.6246 138.082 49.4814C138.183 49.3381 138.276 49.1572 138.353 48.9612L138.384 48.8858H139.281ZM131.971 42.418V50.9513H130.764V50.8307L130.841 44.0463C130.671 44.3478 130.346 44.9358 129.951 45.6368C128.868 47.5817 127.344 50.4237 127.097 50.8835L127.066 50.9513H125.944V42.418H127.151V42.5386L127.12 48.2828L130.439 42.4783L130.47 42.418H131.971ZM108.173 50.9513V42.418H113.063V43.3603H109.442V45.9384H112.869V46.9259H109.442V49.9789H113.241V50.9513H108.173ZM105.056 42.4255H106.324V50.9438H105.056V42.4255ZM100.158 46.3681L99.8876 46.3907V49.9864L100.205 50.0015C100.305 50.009 100.391 50.009 100.46 50.009C100.886 50.009 101.257 49.9714 101.574 49.896C101.884 49.8206 102.139 49.7151 102.34 49.5718C102.533 49.4286 102.68 49.2477 102.781 49.0366C102.882 48.818 102.928 48.5617 102.928 48.2602C102.928 47.9209 102.882 47.6345 102.781 47.3933C102.68 47.1596 102.533 46.9711 102.34 46.8204C102.147 46.6696 101.884 46.5565 101.559 46.4811C101.234 46.4057 100.847 46.3681 100.39 46.3681C100.329 46.3681 100.251 46.3681 100.158 46.3681ZM100.708 50.9513H98.6189V42.418H99.8876V45.4258L100.22 45.4107L100.36 45.4031H100.483C101.118 45.4031 101.667 45.4559 102.139 45.569C102.611 45.6745 103.005 45.8479 103.315 46.0665C103.632 46.2927 103.864 46.5791 104.027 46.9259C104.174 47.2726 104.259 47.6797 104.259 48.1396C104.259 48.6145 104.181 49.0291 104.034 49.3758C103.887 49.7377 103.663 50.0317 103.369 50.2653C103.075 50.4915 102.704 50.6649 102.255 50.7855C101.814 50.8986 101.296 50.9513 100.708 50.9513ZM92.1744 42.418V45.9233H95.6636V42.418H96.9323V50.9513H95.6636V46.9485H92.1744V50.9513H90.9057V42.418H92.1744ZM84.4612 42.418V45.9233H87.9504V42.418H89.2191V50.9513H87.9504V46.9485H84.4612V50.9513H83.1925V42.418H84.4612ZM78.5042 50.1598C78.8446 50.1598 79.1463 50.092 79.4016 49.9563C79.6569 49.8281 79.8658 49.6246 80.036 49.3608C80.214 49.0894 80.3455 48.7502 80.4383 48.3431C80.5234 47.936 80.5698 47.4536 80.5698 46.9033C80.5698 45.5991 80.3996 44.6569 80.0592 44.0689C79.8968 43.7824 79.6801 43.5713 79.4248 43.4281C79.1695 43.2849 78.8601 43.2095 78.5042 43.2095C78.1483 43.2095 77.8466 43.2849 77.5913 43.4206C77.336 43.5638 77.1194 43.7673 76.9492 44.0463C76.7713 44.3327 76.6397 44.6945 76.5546 45.1318C76.4618 45.569 76.4231 46.0816 76.4231 46.6771C76.4231 47.2726 76.4618 47.8003 76.5546 48.2451C76.6397 48.6823 76.779 49.0441 76.9492 49.3306C77.1194 49.602 77.336 49.8131 77.5913 49.9487C77.8466 50.0844 78.1483 50.1598 78.5042 50.1598ZM78.5119 42.2371C79.069 42.2371 79.5564 42.3351 79.9819 42.5235C80.3996 42.7044 80.7632 42.9909 81.0495 43.3678C81.3357 43.7447 81.5446 44.2046 81.6839 44.7549C81.8309 45.2976 81.9005 45.9233 81.9005 46.6394C81.9005 48.1169 81.6142 49.2326 81.0572 49.9864C80.771 50.3709 80.4151 50.6573 79.9896 50.8458C79.5641 51.0343 79.0767 51.1323 78.5119 51.1323C77.9549 51.1323 77.4675 51.0343 77.042 50.8458C76.6165 50.6498 76.2529 50.3633 75.9667 49.9789C75.6804 49.602 75.4638 49.1271 75.3245 48.5768C75.1776 48.0189 75.1079 47.3857 75.1079 46.662C75.1079 45.9459 75.1776 45.3052 75.3245 44.7624C75.4638 44.2121 75.6804 43.7523 75.9667 43.3754C76.2529 42.9984 76.6088 42.712 77.0343 42.5235C77.4598 42.3351 77.9549 42.2371 78.5119 42.2371ZM69.9632 42.418V42.5386L69.9477 46.3379L73.197 42.4632L73.2357 42.418H74.6205L74.4658 42.6064L71.7194 46.0288L74.489 50.778L74.5896 50.9513H73.1661L73.1274 50.891L70.8297 46.9485L69.9632 48.0189V50.9513H68.7409V42.418H69.9632ZM64.0681 42.2371C64.6174 42.2371 65.1048 42.3351 65.5303 42.5235C65.9558 42.7044 66.3116 42.9909 66.5979 43.3678C66.8841 43.7447 67.1008 44.2046 67.24 44.7549C67.3793 45.2976 67.4489 45.9233 67.4489 46.6394C67.4489 48.1169 67.1704 49.2326 66.6056 49.9864C66.3194 50.3709 65.9635 50.6573 65.538 50.8458C65.1125 51.0343 64.6251 51.1323 64.0681 51.1323C63.5111 51.1323 63.0159 51.0343 62.5904 50.8458C62.1649 50.6498 61.809 50.3633 61.5151 49.9789C61.2288 49.602 61.0122 49.1271 60.8729 48.5768C60.7337 48.0189 60.6641 47.3857 60.6641 46.662C60.6641 45.9459 60.7337 45.3052 60.8729 44.7624C61.0122 44.2121 61.2288 43.7523 61.5151 43.3754C61.8013 42.9984 62.1649 42.712 62.5904 42.5235C63.0159 42.3351 63.5033 42.2371 64.0681 42.2371Z" fill="url(#paint7_linear)"/>
<path d="M135.133 4.99048H139.705V9.94314H135.133V4.99048Z" fill="url(#paint8_linear)"/>
<path d="M48.105 15.6059H0V0.958984H48.105V15.6059Z" fill="url(#paint9_linear)"/>
<defs>
<linearGradient id="paint0_linear" x1="18.043" y1="34.6502" x2="48.1066" y2="34.6502" gradientUnits="userSpaceOnUse">
<stop stop-color="#BD1A1B"/>
<stop offset="1" stop-color="#E31A1B"/>
</linearGradient>
<linearGradient id="paint1_linear" x1="5.59979e-08" y1="34.6502" x2="30.0637" y2="34.6502" gradientUnits="userSpaceOnUse">
<stop stop-color="#BD1A1B"/>
<stop offset="1" stop-color="#E31A1B"/>
</linearGradient>
<linearGradient id="paint2_linear" x1="60.1172" y1="26.0036" x2="169.875" y2="26.0036" gradientUnits="userSpaceOnUse">
<stop stop-color="#BD1A1B"/>
<stop offset="1" stop-color="#E31A1B"/>
</linearGradient>
<linearGradient id="paint3_linear" x1="60.1172" y1="26.0036" x2="169.875" y2="26.0036" gradientUnits="userSpaceOnUse">
<stop stop-color="#BD1A1B"/>
<stop offset="1" stop-color="#E31A1B"/>
</linearGradient>
<linearGradient id="paint4_linear" x1="60.1172" y1="26.0036" x2="169.875" y2="26.0036" gradientUnits="userSpaceOnUse">
<stop stop-color="#BD1A1B"/>
<stop offset="1" stop-color="#E31A1B"/>
</linearGradient>
<linearGradient id="paint5_linear" x1="60.1172" y1="26.0036" x2="169.875" y2="26.0036" gradientUnits="userSpaceOnUse">
<stop stop-color="#BD1A1B"/>
<stop offset="1" stop-color="#E31A1B"/>
</linearGradient>
<linearGradient id="paint6_linear" x1="60.1172" y1="26.0036" x2="169.875" y2="26.0036" gradientUnits="userSpaceOnUse">
<stop stop-color="#BD1A1B"/>
<stop offset="1" stop-color="#E31A1B"/>
</linearGradient>
<linearGradient id="paint7_linear" x1="60.1172" y1="26.0036" x2="169.875" y2="26.0036" gradientUnits="userSpaceOnUse">
<stop stop-color="#BD1A1B"/>
<stop offset="1" stop-color="#E31A1B"/>
</linearGradient>
<linearGradient id="paint8_linear" x1="60.1172" y1="26.0036" x2="169.875" y2="26.0036" gradientUnits="userSpaceOnUse">
<stop stop-color="#BD1A1B"/>
<stop offset="1" stop-color="#E31A1B"/>
</linearGradient>
<linearGradient id="paint9_linear" x1="8.96025e-08" y1="8.28245" x2="48.105" y2="8.28245" gradientUnits="userSpaceOnUse">
<stop stop-color="#BD1A1B"/>
<stop offset="1" stop-color="#E31A1B"/>
</linearGradient>
</defs>
</svg>
